<?xml version="1.0" encoding="utf-8"?>
<!-- Generator: Adobe Illustrator 23.0.1, SVG Export Plug-In . SVG Version: 6.00 Build 0)  -->
<svg version="1.1" id="Layer_1" xmlns="http://www.w3.org/2000/svg" xmlns:xlink="http://www.w3.org/1999/xlink" x="0px" y="0px"
	 viewBox="0 0 324.5 261.7" style="enable-background:new 0 0 324.5 261.7;" xml:space="preserve">
<style type="text/css">
	.st0{fill:#E7E4D8;}
</style>
<path class="st0" d="M324.4,51.5c-0.4-1.4-1.5-1.9-2.9-1.5c-0.7,0.2-1.2,0.2-1.8-0.2c-2.3-1.6-4.9-2.9-7.1-4.6
	c0.6-0.9,0.9-1.9,0.9-3c0-3-2.4-5.4-5.4-5.4c-0.8,0-1.5,0.2-2.1,0.4c-1.5-3.1-2.9-6.2-4.4-9.3c-0.4-0.9-0.6-1.7-0.2-2.7
	c0.7-2-0.6-3.4-2.6-3c-1,0.2-1.6-0.1-2.3-0.6c-3.9-3-7.8-5.9-11.7-8.9c-0.8-0.6-1.4-1.2-1.4-2.3c0-1.2-0.8-1.9-2-1.9
	c-1.2-0.1-2.1,0.6-2.2,1.7c-0.2,1.3-1,1.9-1.9,2.5c-3.9,2.3-7.7,4.7-11.6,7c-1.3,0.8-2.5,1.9-4.2,1c-0.5-0.3-1.2,0.1-1.6,0.5
	c-0.8,0.7-1.6,0.7-2.5,0.4c-6.8-1.5-13.6-2.9-20.4-4.4c-0.9-0.2-1.6-0.5-2.1-1.4c-1.1-1.7-2.6-1.7-3.9-0.1c-0.4,0.5-0.8,0.9-1.5,1
	c-5.5,0.6-11,1.3-16.5,2c-0.9,0.1-1.5,0-2.2-0.7c-1.3-1.2-3.2-0.6-3.6,1.2c-0.2,1.1-0.8,1.6-1.7,2.1c-4.2,2.4-8.4,4.8-12.6,7.2
	c-0.4,0.2-0.8,0.4-1.2,0.5c-0.7-0.9-1.8-1.5-3-1.5c-1.6,0-3,1-3.6,2.5c-5.9-0.9-11.9-1.9-17.8-2.8c-0.9-0.1-1.6-0.4-2-1.2
	c-0.7-1.3-1.9-1.5-3.2-0.9c-0.7,0.3-1.2,0.3-1.8,0c-4.6-2.1-9.1-4.2-13.7-6.3c0-0.2,0.1-0.5,0.1-0.7c0-2.1-1.7-3.8-3.8-3.8
	s-3.8,1.7-3.8,3.8c0,0.3,0.1,0.6,0.1,0.9c-4,1.8-8,3.8-12.1,5.3c0,0,0,0-0.1,0c-0.7-1.1-1.9-1.8-3.2-1.8c-0.9,0-1.7,0.3-2.3,0.8
	c-0.1-0.1-0.1-0.1-0.2-0.1c-3.3-3.1-6.6-6.4-9.9-9.6c-0.7-0.7-1.2-1.3-1.1-2.5c0.1-1.9-1.7-3-3.3-2c-0.9,0.6-1.7,0.4-2.5,0.1
	c-5.5-2-10.9-3.9-16.4-5.8c-1-0.3-1.8-0.7-2.2-1.9C85-0.3,83-0.5,82,1c-0.7,1.2-1.7,1.4-2.9,1.6C74.4,3.4,69.7,4.2,64.9,5
	c-1-1.4-2.6-2.4-4.5-2.4c-3,0-5.4,2.4-5.4,5.4c0,0.5,0.1,0.9,0.2,1.3c-2.3,2.1-4.5,4.3-6.7,6.5c-0.6,0.6-1.1,0.9-2,0.8
	c-2-0.1-3,1-2.5,2.9c0.3,1.2,0,2.1-0.6,3.1c-2.9,5.2-5.7,10.4-8.6,15.6c-0.4,0.8-1,1.4-2,1.7c-1.8,0.5-2.4,2-1.4,3.6
	c0.6,0.9,0.6,1.7,0.4,2.7c-1.1,5.5-2.1,11-3.2,16.5c-0.2,1-0.6,1.7-1.4,2.4c-1.7,1.2-1.5,3.2,0.3,4c1.1,0.5,1.5,1.3,1.8,2.3
	c1.5,4.3,2.9,8.5,4.4,12.8c0.1,0.3,0.2,0.7,0.4,1c-1.4,1.2-2.3,2.9-2.3,4.9c0,1.7,0.7,3.2,1.7,4.4c-2.7,4.8-5.4,9.7-8.1,14.6
	c0,0.1-0.1,0.2-0.1,0.2c-0.4-0.1-0.7-0.2-1.1-0.2c-2.1,0-3.8,1.7-3.8,3.8c0,0.9,0.3,1.7,0.9,2.4c0,0,0,0.1-0.1,0.1
	c-2.8,3.4-5.6,6.8-8.4,10.3c-0.9-0.6-1.9-1-3.1-1c-3,0-5.4,2.4-5.4,5.4c0,2.5,1.7,4.6,4,5.2c-0.7,6.3-1.3,12.6-1.9,18.9
	c-0.1,0.8-0.3,1.4-1.1,1.9c-1.4,0.9-1.6,2.4-0.4,3.5c1.2,1.2,1.4,2.5,1.4,4c0.2,4.4,0.5,8.7,0.7,13.1c0,0.3,0,0.5,0,0.7
	c-1.8,0.3-3.2,1.9-3.2,3.8c0,1.8,1.2,3.2,2.8,3.7c0,0.2,0,0.3-0.1,0.5c-0.5,3.7-1,7.4-1.5,11.1c-2.9,0.1-5.2,2.5-5.2,5.4
	c0,3,2.4,5.4,5.4,5.4c2.8,0,5.1-2.1,5.3-4.9c3.2-0.4,6.4-0.8,9.5-1.2c0,0,0,0,0,0c0.2,1.9,1.8,3.4,3.8,3.4c2.1,0,3.8-1.7,3.8-3.8
	c0-0.1,0-0.2,0-0.3c0.2-0.1,0.5-0.1,0.7-0.1c4-0.2,8-0.5,12-0.8c0.9-0.1,1.6,0,2.2,0.8c0.6,0.7,1.5,0.9,2.3,0.6
	c1.1-0.4,2-0.1,2.9,0.5c3.3,1.9,6.8,3.5,9.8,5.8c0.1,0,0.1,0.1,0.2,0.1c-0.1,0.3-0.1,0.6-0.1,0.9c0,2.1,1.7,3.8,3.8,3.8
	c0.4,0,0.7-0.1,1.1-0.2c0.2,0.2,0.3,0.4,0.5,0.5c3.2,3.9,5.6,8.5,8.3,12.8c0.5,0.8,0.8,1.6,0.5,2.5c-0.4,1.5,0.2,2.6,1.7,2.9
	c1,0.2,1.4,0.8,1.8,1.5c2.5,4.8,4.9,9.6,7.4,14.4c0.5,0.9,0.8,1.7,0.3,2.7c-0.5,1-0.1,1.9,0.7,2.6c0.8,0.6,1.7,0.6,2.5,0
	c0.7-0.6,1.4-0.5,2.1-0.2c5.1,1.7,10.1,3.4,15.2,5.1c0.2,0.1,0.4,0.2,0.6,0.2c0,0.2-0.1,0.4-0.1,0.7c0,2.1,1.7,3.8,3.8,3.8
	s3.8-1.7,3.8-3.8c0-0.1,0-0.2,0-0.3c0,0,0.1,0,0.1,0c5.1-0.9,10.1-1.8,15.2-2.7c0.8-0.1,1.5-0.3,2.3,0.4c1.4,1.2,2.6,0.9,3.5-0.6
	c0.5-0.9,1.2-1.2,2.1-1.4c6.8-1.6,13.7-3.2,20.5-4.8c0.9-0.2,1.6-0.2,2.4,0.4c0.8,0.7,1.8,0.8,2.7,0.1c1-0.7,1.2-1.7,0.7-2.8
	c-0.4-0.9-0.2-1.6,0.2-2.4c2.6-5.3,5.2-10.6,7.8-16c0.1-0.2,0.2-0.5,0.4-0.7c0.5,0.2,1.1,0.4,1.7,0.4c2.1,0,3.8-1.7,3.8-3.8
	c0-1.4-0.8-2.6-1.9-3.3c2.3-3.8,4.5-7.5,6.7-11.3c0.1-0.2,0.3-0.4,0.4-0.6c0.3,0.1,0.5,0.1,0.8,0.1c2.1,0,3.8-1.7,3.8-3.8
	c0-0.6-0.2-1.2-0.4-1.7c0,0,0,0,0,0c3.2-3.3,6.3-6.7,9.6-9.9c1,1,2.3,1.6,3.8,1.6c3,0,5.4-2.4,5.4-5.4c0-0.7-0.1-1.4-0.4-2
	c3.5-1,6.9-2.1,10.4-3.1c0.9-0.3,1.8-0.7,2.7-0.8c0.6,1.3,1.9,2.2,3.5,2.2c1,0,1.9-0.4,2.6-1.1c0.1,0.1,0.1,0.1,0.2,0.2
	c3.7,2.9,7.3,5.7,11,8.6c-0.7,0.9-1.2,2-1.2,3.3c0,3,2.4,5.4,5.4,5.4c3,0,5.4-2.4,5.4-5.4c0-1.6-0.7-3-1.8-4
	c3.8-6.5,7.6-13,11.5-19.5c0.4-0.7,0.8-1.2,1.7-1.3c1.9-0.4,2.5-1.6,1.8-3.4c-0.3-0.8-0.3-1.5,0-2.2c2.4-6,4.9-11.9,7.3-17.9
	c0-0.1,0.1-0.1,0.1-0.2c0.4,0.2,0.9,0.3,1.4,0.3c2.1,0,3.8-1.7,3.8-3.8c0-1.3-0.7-2.5-1.7-3.2c0,0,0,0,0,0c2.9-4.4,5.7-8.9,8.6-13.3
	c0.6,0.3,1.2,0.5,1.9,0.5c2.1,0,3.8-1.7,3.8-3.8c0-1.3-0.7-2.4-1.6-3.1c0-0.2,0.1-0.3,0.2-0.5c2.2-3.7,4.4-7.4,6.6-11.1
	c0.8,0.4,1.6,0.7,2.5,0.7c3,0,5.4-2.4,5.4-5.4c0-2.1-1.2-3.9-3-4.8c1.4-3.4,2.8-6.8,4.2-10.3c0.8,0.4,1.6,0.7,2.6,0.7
	c3,0,5.4-2.4,5.4-5.4c0-1.5-0.7-2.9-1.7-3.9c3.3-2.6,6.6-5.1,9.9-7.7c0.9-0.7,1.7-1.5,2.8-0.9c2.1,0.1,3.2-1.5,2.3-3.4
	c-0.3-0.8-0.5-1.4-0.2-2.2c1.4-3.8,2.8-7.6,4.2-11.4c0.3-0.8,0.6-1.3,1.5-1.6C324.2,53.8,324.8,52.8,324.4,51.5z M319,50.4
	c1.6,1.1,1.6,2-0.1,2.8c-9.9,5-19.8,10-29.8,15.1c-0.2-0.6-0.6-1.1-0.9-1.6c2.3-2.8,4.5-5.4,6.7-8.1c3.4-4,6.7-8,10.1-12
	c0.9,0.6,1.9,0.9,3,0.9c1.6,0,3-0.7,4-1.8C314.4,47.3,316.7,48.9,319,50.4z M284.2,105.1c-5.9,1.3-11.8,2.5-17.8,3.8
	c-0.2,0-0.4,0.1-0.6,0.1c-1.3-0.1-1.2-0.9-0.7-1.8c1.3-2.6,2.7-5.1,4.1-7.7c4.1-7.6,8.1-15.2,12.2-22.8c0.6,0.2,1.3,0.3,2,0.3
	c0.2,0,0.4,0,0.6,0c1.5,7.6,2.9,15.2,4.4,22.9C286,100.5,284.2,102.6,284.2,105.1z M200.8,184.5c-0.6-0.3-1.2-0.5-1.9-0.6
	c-0.1-3.9-0.3-7.9,0.1-11.7c0.2-1.7,1-3.9,2.8-5.1c7.1-4.9,14.3-9.7,21.4-14.5c0.3,0.3,0.6,0.6,0.9,0.9c0,0-0.1,0.1-0.1,0.1
	c-7.7,10.3-15.4,20.5-23.1,30.8C200.9,184.4,200.8,184.5,200.8,184.5z M169,187.6c-0.3-1.8-1.9-3.1-3.8-3.1c-0.1,0-0.3,0-0.4,0
	c0-0.1-0.1-0.2-0.1-0.3c-1.2-3.8-2.4-7.7-3.6-11.6c1.4-0.3,2.6-1.1,3.4-2.2c9.8,5.3,19.6,10.6,29.4,15.9c-0.3,0.4-0.5,0.9-0.6,1.4
	c-1.1,0-2.3,0-3.4,0c-6.7,0-13.4,0-20.1-0.1C169.5,187.6,169.3,187.6,169,187.6z M177.8,205.1c-9.7,1.4-19.2,3.9-28.7,6.3
	c-6.2,1.5-12.3,3.2-18.4,4.8c-0.1-0.7-0.4-1.3-0.7-1.9c1.4-1.1,2.8-2.1,4.2-3.1c9.3-6.7,18.7-13.5,28.1-20.2
	c0.1-0.1,0.2-0.1,0.4-0.2c0.7,0.8,1.7,1.3,2.8,1.3c0.9,0,1.7-0.3,2.4-0.9c0.2,0.2,0.4,0.4,0.6,0.6c3.4,3.6,6.8,7.2,10.1,10.7
	c-0.5,0.6-0.7,1.4-0.7,2.2C177.7,204.9,177.8,205,177.8,205.1z M108.4,215.3c-14.1-2.1-28.2-4.3-42.4-6.4c-0.2,0-0.4-0.1-0.6-0.1
	c0-0.2,0.1-0.4,0.1-0.6c0-1-0.4-1.8-0.9-2.5c0,0,0-0.1,0.1-0.1c2.4-3.2,4.9-6.4,7.4-9.6c0.8,0.5,1.7,0.7,2.7,0.7
	c1.8,0,3.3-0.9,4.3-2.2c13.2,7,26.3,13.9,39.5,20.9c-0.1,0.4-0.2,0.8-0.3,1.3C114.9,216.3,111.7,215.8,108.4,215.3z M25.5,197.1
	c-0.4-0.2-0.9-0.3-1.4-0.3c-0.6,0-1.1,0.1-1.6,0.4c-0.2-0.1-0.3-0.3-0.5-0.5c-3.8-4.3-7.5-8.6-11.3-13c0,0,0,0,0,0
	c0.6-0.7,0.9-1.5,0.9-2.5c0-0.7-0.2-1.3-0.5-1.8c0.1,0,0.1-0.1,0.2-0.1c11.6-7.5,23.3-14.9,34.9-22.4c0.4,0.6,0.9,1.2,1.5,1.6
	c-3.6,6.2-6.9,12.1-10.3,18c-3.8,6.6-7.6,13.2-11.4,19.8C25.8,196.6,25.6,196.8,25.5,197.1z M48.5,147.8c-0.8-1.1-1.6-2.2-2.3-3.3
	c-6.4-9.4-12.8-18.9-19.2-28.3c-0.1-0.1-0.2-0.3-0.3-0.4c0.7-0.6,1.2-1.4,1.4-2.3c0.1,0,0.3,0,0.4,0c5.1,0.3,10.2,0.7,15.2,1.1
	c0,0.1,0,0.1,0,0.2c0,3,2.4,5.4,5.4,5.4c0.1,0,0.2,0,0.3,0c0.4,9,0.9,17.9,1.3,26.9C49.9,147.2,49.2,147.5,48.5,147.8z M123,30
	c0,0.2,0,0.4,0,0.6c0,6.1,0,12.2,0,18.4c0,2.8-1,3.7-3.6,3.2C107.2,50,95,47.8,82.8,45.6c0-0.8-0.2-1.6-0.5-2.3
	c1.9-0.8,3.7-1.5,5.6-2.3c10.6-4.2,21.2-8.4,31.8-12.7c0.2-0.1,0.4-0.1,0.6-0.2C120.8,29.1,121.8,29.8,123,30z M126.3,29
	C126.3,29,126.3,29,126.3,29c8.4,6.8,16.8,13.5,25.2,20.3c-0.5,0.8-0.8,1.6-1,2.6c-7.7,0.3-15.4,0.5-23.1,0.8
	c-1.9,0.1-3.3-1.1-3.3-3.1c-0.1-3.3,0-6.6,0-9.8c0-3.2,0-6.4,0-9.7c0,0,0,0,0-0.1C125,29.9,125.7,29.5,126.3,29z M188.5,35.1
	c1,0,1.9-0.4,2.6-1c0.1,0.1,0.2,0.2,0.3,0.3c2.6,2.8,5.2,5.5,7.8,8.3c-0.9,0.9-1.5,2.2-1.5,3.6c-11.7,1.5-23.3,3.1-35,4.6
	c-0.2-0.7-0.6-1.3-1-1.9c0.1-0.1,0.2-0.1,0.3-0.2c7.8-5,15.7-10,23.5-15C186.3,34.5,187.3,35.1,188.5,35.1z M236.4,113.8
	c-0.5-0.4-1.1-0.7-1.8-0.9c0.7-2.3,1.3-4.6,2-6.9c1.5-4.9,3-9.9,4.4-14.8c0,0,0-0.1,0-0.1c0.4,0.1,0.9,0.2,1.4,0.2
	c3,0,5.4-2.4,5.4-5.4c0-0.2,0-0.3,0-0.5c10.1-3.7,20.2-7.4,30.4-10.8c0.2,0.3,0.4,0.5,0.7,0.8C264.8,88.1,250.6,100.9,236.4,113.8z
	 M229.1,62.8c2.1,0.4,4.2,0.9,6.2,1.3c7.1,1.5,14.2,3,21.4,4.5c0.8,0.2,1.6,0.2,1.8,1.2c0.2,0.9-0.5,1.3-1,1.7
	c-3.7,3.5-7.4,7.1-11.1,10.6c-1-1-2.3-1.6-3.9-1.6c-1.5,0-2.9,0.6-3.8,1.6c-3.9-5.3-7.8-10.6-11.7-15.9
	C228,65.2,228.7,64.1,229.1,62.8z M277.1,70.5c-4.3-0.5-8.7-1-13.1-1.7c-1.7-0.3-2.9-1.8-3.1-3.4c-0.5-5-0.7-10-0.9-15
	c0-0.5-0.2-1.2,0.3-1.4c0.7-0.4,1,0.4,1.4,0.8c5.6,5.8,11.1,11.6,16.6,17.3C277.6,68,277.1,69.2,277.1,70.5z M260.4,71.2
	c0.3,0.1,0.9,0,1.1-0.2c1.6-1.7,3.5-1,5.4-0.8c3.4,0.4,6.8,0.8,10.2,1.3c0.1,0.7,0.3,1.3,0.5,2c-10,3.7-20,7.3-30,11
	c-0.2-0.6-0.4-1.2-0.8-1.6c0.1-0.1,0.3-0.3,0.4-0.4c3.5-3.4,7.1-6.8,10.6-10.2C258.6,71.5,259.3,70.8,260.4,71.2z M257.1,67.7
	c-9.3-1.9-18.6-3.9-27.8-5.9c0-0.2,0-0.4,0-0.6c0-0.8-0.2-1.6-0.4-2.3c1.6-0.6,3.1-1.2,4.7-1.8c7.4-2.9,14.7-5.8,22.1-8.7
	c2-0.8,3.2-0.1,3.3,2c0.3,4.9,0.6,9.9,0.9,14.9C259.9,67.2,259,68.1,257.1,67.7z M226.2,66.6c3.1,4.2,6.2,8.3,9.2,12.5
	c0.7,0.9,1.3,1.9,2.1,2.8c0.2,0.3,0.4,0.5,0.6,0.8c-0.6,0.9-1,1.9-1,3.1c0,2.1,1.2,3.9,3,4.8c-0.1,0.8-0.3,1.7-0.6,2.6
	c-2,6.5-3.9,13-5.8,19.5c-0.2,0-0.4-0.1-0.5-0.1c-0.3,0-0.6,0-0.9,0.1c-2.7-15.1-5.4-30.2-8.1-45.4C224.9,67.2,225.6,67,226.2,66.6z
	 M228.1,142.3c-0.9,0-1.8,0.2-2.6,0.6c-3.7-6.3-7.3-12.6-11-19c-1.4-2.4-2.8-4.8-4.2-7.2c-0.3-0.5-0.8-1-0.3-1.6
	c0.4-0.6,1.1-0.4,1.6-0.3c5.4,0.9,10.8,1.8,16.2,2.8c0,0.2-0.1,0.4-0.1,0.5c0,2.4,1.5,4.4,3.7,5.1c-0.9,6.2-1.8,12.7-2.7,19.2
	C228.5,142.3,228.3,142.3,228.1,142.3z M194.4,185.6c-9.8-5.3-19.6-10.6-29.4-15.9c0.4-0.6,0.6-1.3,0.8-2c3.8,0.2,7.5,0.3,11.2,0.6
	c5.7,0.3,11.4,0.7,17.1,1c2.2,0.1,3.8,1.7,3.8,3.9c0,3.6,0.1,7.2,0,10.8C196.6,184,195.3,184.6,194.4,185.6z M124.4,211.2
	c-0.4,0-0.8,0-1.1,0.1c-2.8-10.3-5.5-20.7-8.3-31c-0.2-0.7-0.8-1.5,0-2.2c0.7-0.7,1.5,0,2.1,0.2c4.8,2,9.6,4,14.5,6.1
	c-0.3,0.6-0.4,1.3-0.4,2c0,2,1.1,3.7,2.7,4.7c-2.4,6.8-4.9,13.6-7.3,20.4C125.9,211.3,125.2,211.2,124.4,211.2z M51.6,147.1
	c-0.2-2.6-0.3-5.1-0.5-7.7c-0.3-6.4-0.6-12.8-0.8-19.2c1.3-0.3,2.4-1.1,3.1-2.1c4.2,2.9,8.3,6,12.5,8.8c0.3,0.2,0.6,0.4,0.8,0.7
	c-0.5,0.7-0.9,1.5-0.9,2.4c0,0.9,0.3,1.7,0.9,2.4c-4,5.2-8.1,10.5-12.1,15.7C53.8,147.4,52.8,147.1,51.6,147.1z M44.3,88.1
	c2-0.7,3.9-1.4,5.9-2.1c2-0.7,4-1.4,6-2.1c0.9,1.7,2.7,2.8,4.7,2.8c1.5,0,2.8-0.6,3.8-1.5c9.1,5.2,18.3,10.5,27.4,15.9
	c-0.1,0.2-0.2,0.5-0.3,0.7C75.9,98.4,60.2,95,44.4,91.6c0.1-0.5,0.2-1,0.2-1.5C44.6,89.4,44.5,88.8,44.3,88.1z M76.5,52.1
	c0.5,0,1-0.1,1.5-0.2c1.7,6.7,3.5,13.5,5.2,20.2c-1.6,0.5-2.7,1.9-2.7,3.6c0,0.2,0,0.4,0.1,0.5c-4.8,1.2-9.7,2.5-14.5,3.7
	c-0.4-1.6-1.5-2.9-3-3.6c3.7-8.3,7.4-16.5,11.2-24.8C75,51.9,75.7,52.1,76.5,52.1z M105.8,50.7c4.6,0.8,9.2,1.7,13.9,2.5
	c2,0.4,2.6,1.5,1.6,3.3c-3.1,5.7-6.3,11.3-9.4,17c-0.7-0.3-1.4-0.4-2.1-0.4c-1.4,0-2.7,0.6-3.7,1.5c-8.1-8.3-16.3-16.7-24.4-25
	c0.6-0.8,1-1.8,1.1-2.9C90.5,47.9,98.2,49.3,105.8,50.7z M150.4,52.8c0,0.6,0.1,1.3,0.3,1.9c-12.2,6.9-24.3,13.8-36.5,20.7
	c-0.4-0.6-1-1.2-1.6-1.6c3.1-5.6,6.3-11.2,9.4-16.9c0.4-0.8,0.8-1.5,1.8-1.4c0.3,0,0.7-0.1,0.9-0.3c1.4-2.2,3.6-1.6,5.5-1.6
	C137,53.3,143.7,53.1,150.4,52.8z M152.3,57.2c-4,5.2-8,10.3-12,15.5c-0.5,0.7-1.1,1.2-2.1,1.1c-0.5-0.1-1.2,0.1-1.4,0.5
	c-0.8,1.7-2.4,1.6-3.8,1.7c-6,0.6-12,1.1-17.9,1.6c-0.1-0.5-0.2-1-0.4-1.4c12.3-7,24.3-13.8,36.4-20.6
	C151.4,56.2,151.8,56.8,152.3,57.2z M197.8,47.2c0.1,0.9,0.5,1.7,1,2.4c-4.4,4.5-8.8,8.9-13.3,13.3c-0.9,0.9-4.5,1.7-5.6,1.1
	c-5.8-3-11.5-5.9-17.3-8.9c0.3-0.7,0.5-1.5,0.5-2.3c0-0.4,0-0.7-0.1-1c2.1-0.3,4.2-0.6,6.3-0.8C178.8,49.7,188.3,48.4,197.8,47.2z
	 M178.1,149.3c0,2-0.6,4-0.4,5.9c0,0.6,0,1.1-0.1,1.6c-1.7,0.4-2.9,1.9-2.9,3.7c0,0.3,0.1,0.7,0.1,1c-0.2,0.1-0.5,0.2-0.8,0.3
	c-2.8,0.8-5.7,1.7-8.5,2.5c-0.5-1.2-1.3-2.2-2.3-3c4.9-6.9,9.7-13.7,14.6-20.5c0.3,0.1,0.5,0.2,0.8,0.3
	C178.7,143.9,178.2,146.6,178.1,149.3z M140,182.3c-0.9-0.8-2.1-1.3-3.4-1.3c-1.9,0-3.6,1-4.6,2.5c-5.1-2.1-10.1-4.3-15.2-6.4
	c-0.3-0.1-0.5-0.3-1.3-0.8c13-2.7,25.5-5.4,38-8c0.2,0.6,0.4,1.1,0.8,1.6c-2.8,2.4-5.6,4.8-8.3,7.2c-1.6,1.3-3.4,2.5-4.6,4.1
	C140.9,181.6,140.5,182,140,182.3z M120.7,212.4c-1.3-1.7-2.6-3.3-3.9-5c-7-9-14-17.9-20.9-26.9c0.9-1,1.5-2.3,1.5-3.8
	c0-0.1,0-0.2,0-0.2c2,0,4.1,0,6.1,0c1.5,0,3.1,0,4.6,0c3.5,0,5.3,1.4,6.2,4.8c2.7,10,5.4,20.1,8,30.1
	C121.7,211.8,121.2,212.1,120.7,212.4z M92,171.4c-1.6,0-3.1,0.7-4,1.9c-9.7-5.5-19.4-11-29.1-16.6c-0.2-0.1-0.3-0.1-0.5-0.2
	c0.1-0.1,0.2-0.3,0.3-0.4c17.1,6.4,34.1,12.8,51.2,19.2c-0.1,0.1-0.1,0.2-0.2,0.4c-4.2,0-8.3,0.3-12.5,0
	C96.7,173.2,94.6,171.4,92,171.4z M113.9,172.5c-0.4,1.8-2,2.6-3.6,2c-17.4-6.8-35-13.2-52.6-19.7c0.1-0.4,0.2-0.9,0.2-1.4
	c0,0,0,0,0-0.1c2.1-0.1,4.1-0.2,6.2-0.3c13.5-0.3,26.9-0.5,40.4-0.9c3.6-0.1,7.2-0.2,10.7-0.3c0.2,1.6,1.3,2.9,2.8,3.3
	C116.6,160.9,115.2,166.7,113.9,172.5z M66.2,81c4.9-1.3,9.7-2.5,14.6-3.8c0.6,1.4,1.9,2.4,3.5,2.4c0.5,0,1-0.1,1.5-0.3
	c0,0,0,0.1,0.1,0.1c3,6.3,5.9,12.6,8.9,19c-0.8,0.4-1.6,1.1-2.2,1.8c-5.1-2.9-10.1-5.8-15.1-8.6c-4.1-2.3-8.2-4.7-12.3-7.1
	c0.6-0.9,1-2,1-3.2C66.3,81.2,66.2,81.1,66.2,81z M104.4,78.5c0,1.9,1.1,3.5,2.6,4.5c-2.1,4.5-4.2,9-6.3,13.5
	c-0.3,0.5-0.5,1.1-0.7,1.6c-0.7-0.3-1.5-0.4-2.3-0.4c-0.7,0-1.4,0.1-2,0.3c-2.2-4.7-4.4-9.4-6.6-14.1c-0.8-1.7-1.6-3.4-2.4-5.1
	c0.7-0.5,1.3-1.3,1.5-2.3C93.6,77.2,99,77.8,104.4,78.5z M120.2,78.1c4.6-0.6,9.2-0.9,13.8-1.3c0.5,0,1,0,1.7,0.4
	c-11.1,7.6-22.1,15.1-33.2,22.7c-0.5-0.6-1.1-1.1-1.7-1.4c0.5-1,1-2,1.4-3.1c1.9-4,3.7-8,5.6-12c0.6,0.2,1.3,0.4,2,0.4
	c3,0,5.3-2.4,5.4-5.3C116.8,78.3,118.5,78.3,120.2,78.1z M218,65.1c-4.2,4.6-8.5,9.3-12.7,13.9c-7.4,8.1-14.8,16.2-22.2,24.2
	c-2,2.2-3.8,2.2-5.9,0.2c-3.2-2.9-6.3-5.8-9.5-8.8c0.9-1,1.4-2.2,1.4-3.6c0-0.7-0.1-1.4-0.4-2c16.2-8.3,32.4-16.7,48.6-25
	C217.5,64.4,217.8,64.8,218,65.1z M163.8,96.5c1.3,0,2.4-0.5,3.3-1.2c2,1.6,3.5,3.8,5.6,5.3c1.6,1.1,3,2.7,4.4,4
	c0.4,0.4,1.1,0.7,0.8,1.4c-0.3,0.6-0.9,0.4-1.4,0.3c-3.9-0.1-7.9-0.2-11.8-0.4c-4.2-0.2-8.4-0.5-12.5-0.6
	c-8.6-0.3-17.1-0.6-25.7-0.9c-7.5-0.3-15.1-0.7-22.6-1c0-0.1,0-0.3-0.1-0.4c16.2-3.1,32.5-6.1,48.7-9.2c2-0.4,3.9-0.7,5.9-1.1
	c0.1,0,0.1,0,0.2,0C159.4,94.9,161.4,96.5,163.8,96.5z M177,140.2c-4.8,6.9-9.7,13.7-14.6,20.6c-0.8-0.4-1.7-0.6-2.6-0.7
	c0.6-7.6,1.3-15.2,1.9-22.7c0.3-3.8,0.6-7.7,0.9-11.5c0,0,0,0,0,0c0.2,0,0.4,0.1,0.6,0.1c1.2,0,2.2-0.4,3.1-1
	c3.4,3.4,6.8,6.7,10.1,10.2c-0.4,0.6-0.7,1.4-0.7,2.2C175.6,138.5,176.1,139.5,177,140.2z M57.7,152.3c0-0.2-0.1-0.4-0.1-0.7
	c3.6-1,7.2-2.1,10.8-3.1c7.2-2.1,14.5-4.2,21.7-6.3c0.1,0,0.2-0.1,0.3-0.1c0.6,1.2,1.9,2.1,3.4,2.1c1.4,0,2.7-0.8,3.3-1.9
	c0.5,0.1,0.9,0.4,1.4,0.6c5.6,2.4,11.2,4.8,16.8,7.4c-0.1,0.2-0.1,0.4-0.1,0.6C96,151.3,76.9,151.8,57.7,152.3z M115.8,149.2
	C115.8,149.2,115.8,149.2,115.8,149.2c-6-2.5-12-5.1-18-7.7c-0.1-0.1-0.3-0.1-0.4-0.2c0.1-0.3,0.1-0.6,0.1-0.9c0-1.6-1-3-2.4-3.5
	c0.7-8.9,1.6-17.7,2.5-26.6c0.8,0,1.6-0.2,2.3-0.5c0.1,0.2,0.2,0.5,0.3,0.7c5.6,12.4,11.2,24.8,16.8,37.2c0,0.1,0.1,0.2,0.2,0.3
	C116.7,148.2,116.2,148.7,115.8,149.2z M158.1,122.3c-5.4,2.8-10.8,5.6-16.2,8.4c-0.6-1.3-1.9-2.2-3.4-2.2c-1.4,0-2.6,0.7-3.2,1.8
	c-2.2-1.1-4-3-6-4.4c-8.8-6.2-17.4-12.6-26.1-19c0.2-0.4,0.4-0.9,0.6-1.3c6.5,1.7,13,3.4,19.5,5.1c11.5,3,23,6,34.5,9
	c0,0.2-0.1,0.4-0.1,0.7C157.7,121.2,157.9,121.8,158.1,122.3z M118.1,147.3c-5.3-11.8-10.7-23.6-16-35.4c-0.4-0.9-0.8-1.7-1.2-2.6
	c0.7-0.4,1.3-0.9,1.8-1.6c4.5,3.3,8.9,6.5,13.4,9.8c6.2,4.5,12.4,9,18.6,13.6c0.1,0.1,0.1,0.1,0.2,0.2c-0.1,0.4-0.2,0.7-0.2,1.2
	c0,0.9,0.4,1.8,0.9,2.5c-0.2,0.2-0.4,0.5-0.6,0.7c-4.3,4.2-8.6,8.3-12.9,12.5c-0.2,0.2-0.4,0.4-0.6,0.5c-0.7-0.6-1.5-1-2.5-1
	c-0.2,0-0.4,0-0.6,0.1C118.2,147.6,118.2,147.5,118.1,147.3z M122.1,149.3c0.3-0.4,0.7-0.8,1.1-1.2c4.1-3.9,8.2-7.8,12.3-11.8
	c0.3-0.2,0.5-0.5,0.8-0.7c0.6,0.4,1.3,0.6,2.1,0.6c0.3,0,0.6-0.1,0.9-0.1c0.2,0.2,0.3,0.4,0.5,0.6c5.1,8.4,10.2,16.8,15.4,25.2
	c-0.7,0.7-1.3,1.6-1.6,2.6c-9.9-3.4-19.8-6.9-29.4-11c-0.7-0.3-1.2-0.6-1.6-0.8c0.1-0.4,0.2-0.8,0.2-1.2
	C122.7,150.7,122.5,149.9,122.1,149.3z M155.9,161.3c-5.1-8.3-10.1-16.5-15.2-24.8c-0.2-0.3-0.3-0.5-0.4-0.8
	c1.1-0.7,1.9-1.9,1.9-3.3c0-0.3,0-0.6-0.1-0.8c5.4-2.8,10.9-5.6,16.3-8.4c0.7,1.2,1.8,2,3.1,2.4c-0.9,11.5-1.8,23-2.7,34.5
	C157.8,160.3,156.8,160.7,155.9,161.3z M166.9,116.7c-1-1-2.3-1.5-3.8-1.5c-2.4,0-4.5,1.6-5.1,3.9c-0.5-0.1-0.9-0.3-1.4-0.4
	c-17.6-4.6-35.1-9.2-52.7-13.8c0-0.1,0-0.3,0-0.4c14,0.6,27.7,1.2,41.4,1.7c8.1,0.3,16.2,0.6,24.3,0.9c2.4,0.1,4.8,0.2,7.1,0.4
	c0.4,0,0.8-0.1,1,0.3c0.3,0.6-0.3,0.8-0.6,1.1C173.8,111.4,170.4,114,166.9,116.7z M93.2,108.5c0.9,0.9,2.1,1.5,3.5,1.7
	c-0.6,6.5-1.3,12.9-1.9,19.4c-0.2,2.2-0.4,4.4-0.6,6.5c0,0.2,0,0.3-0.1,0.5c-0.1,0-0.3,0-0.4,0c-1.3,0-2.5,0.7-3.2,1.7
	c-5.7-2.6-11.3-5.3-17-8c0-0.1,0-0.3,0-0.4c0-1-0.4-1.9-1-2.6c0.1-0.1,0.3-0.3,0.4-0.4C79.8,120.7,86.5,114.6,93.2,108.5z
	 M67.5,132.9c0.6,0.5,1.4,0.8,2.3,0.8c1.6,0,3-1,3.6-2.5c0.1,0,0.3,0.1,0.4,0.1c5.5,2.6,10.9,5.1,16.4,7.7c-0.1,0.4-0.2,0.8-0.2,1.3
	c0,0.3,0,0.6,0.1,0.9c-10.9,3.2-21.9,6.4-32.8,9.5c-0.4-0.9-1-1.7-1.8-2.3C59.5,143.3,63.5,138.1,67.5,132.9z M114.9,172.3
	c1.3-5.7,2.7-11.4,4-17c0,0,0,0,0,0c1.3,0,2.5-0.7,3.2-1.7c10.2,4.6,20.7,8.1,31.2,11.8c-0.1,0.4-0.1,0.7-0.1,1.1
	c0,0.3,0,0.6,0.1,0.9c-1.7,0.4-3.3,0.7-5,1.1c-10.3,2.2-20.6,4.3-31,6.5C115,175.5,114.3,174.7,114.9,172.3z M165.7,165.1
	c2.9-0.9,5.7-1.9,8.6-2.3c0.3-0.1,0.7-0.1,1-0.1c0.7,1,1.8,1.6,3.1,1.6c1.1,0,2.1-0.5,2.8-1.2c4.5,1.3,8.8,3.2,13.2,5.1
	c-9.5-0.5-19.1-1-28.6-1.6c0-0.1,0-0.1,0-0.2C165.9,166,165.8,165.6,165.7,165.1z M179.4,133.5c-0.9,0-1.8,0.3-2.4,0.9
	c-0.2-0.2-0.5-0.5-0.7-0.7c-3.1-3.1-6.2-6.2-9.4-9.3c0.3-0.3,0.6-0.7,0.9-1.1c18,7.7,36,15.3,54,23c0,0.1-0.1,0.2-0.1,0.3
	c-5.4-1.2-10.8-2.4-16.2-3.6c-7.2-1.6-14.3-3.3-21.5-4.9c-0.3-0.1-0.6-0.1-0.8-0.2c0-0.2,0.1-0.4,0.1-0.6
	C183.2,135.2,181.5,133.5,179.4,133.5z M203.6,137.6c-11.8-5-23.7-10.1-35.5-15.1c0.2-0.6,0.4-1.3,0.4-2c0-1.2-0.4-2.3-1-3.2
	c3.3-2.5,6.6-5.1,9.9-7.6c1.3-1,4.3-1,5.5,0c13.4,11.6,26.8,23.3,40.2,34.9c-0.2,0.3-0.4,0.6-0.6,0.9
	C216,142.9,209.8,140.3,203.6,137.6z M182.9,108.6c0.1-0.1,0.2-0.3,0.3-0.4c1.6,0.4,3.2,0.7,4.8,1.1c5.3,1.3,10.6,2.6,16,3.9
	c1,0.2,1.8,0.5,2.3,1.6c0.2,0.4,0.6,0.9,0.9,0.9c2.2,0.1,2.7,1.9,3.6,3.4c4.7,8.1,9.4,16.2,14,24.3c-0.3,0.2-0.7,0.5-1,0.8
	C210.1,132.2,196.5,120.4,182.9,108.6z M208.8,109.3c-0.6,2.4-2.3,3.4-4.7,2.9c-6.6-1.6-13.2-3.1-19.7-4.7c-2.3-0.6-2.6-1.4-1-3.1
	c9.3-10.1,18.5-20.3,27.8-30.4c2.5-2.7,5-5.4,7.5-8.2c0.5,0.5,1.1,0.9,1.7,1.1c-1.1,4-2.2,8-3.3,12
	C214.4,89.1,211.6,99.2,208.8,109.3z M217,63.2c-16.2,8.3-32.4,16.7-48.6,25c-0.3-0.5-0.6-0.9-1-1.2c1.8-2.4,3.6-4.7,5.5-7.1
	c2.6-3.4,5.2-6.7,7.8-10.1c0.6-0.8,1.2-1.6,2.5-1.5c0.4,0,1-0.2,1.2-0.5c0.9-1.9,2.6-1.7,4.3-2c9.4-1.2,18.8-2.5,28.2-3.8
	C216.8,62.5,216.9,62.9,217,63.2z M162.2,56c5.7,3,11.4,5.9,17.2,8.8c1.1,0.6,1.3,1.5,1.5,2.6c0.1,0.6-0.5,1.2-0.9,1.7
	c-4.4,5.8-8.9,11.5-13.4,17.3c-0.8-0.5-1.8-0.8-2.8-0.8c-0.3,0-0.6,0-0.9,0.1c-1.8-8.9-3.5-17.8-5.2-26.7
	C159.6,58.8,161.2,57.6,162.2,56z M158.5,91.8c-18.3,3.4-36.5,6.9-54.8,10.3c-0.2-0.5-0.4-1-0.7-1.4c1.6-1.1,3.2-2.2,4.8-3.3
	c9-6.1,18-12.3,27-18.4c1.7-1.2,5.2-1.2,7-0.1c5.6,3.4,11.3,6.8,16.9,10.3c-0.3,0.6-0.4,1.3-0.4,2C158.4,91.3,158.4,91.5,158.5,91.8
	z M82.2,51.1c7.8,8,15.6,15.9,23.4,23.9c-0.5,0.7-0.9,1.5-1.1,2.5c-3.2-0.4-6.4-0.7-9.5-1.1c-1.5-0.2-3.1-0.4-4.6-0.6
	c-0.8-0.1-1.5-0.2-2.2-0.4c-0.2-2-1.8-3.5-3.8-3.5c0,0-0.1,0-0.1,0c-0.2-0.5-0.4-1-0.6-1.7C82.1,64,80.6,57.8,79,51.6
	c0.8-0.3,1.6-0.9,2.2-1.5C81.5,50.4,81.8,50.8,82.2,51.1z M92.6,107.8c-6.7,6.1-13.5,12.3-20.2,18.4c-0.2,0.2-0.4,0.3-0.7,0.4
	c-0.6-0.3-1.2-0.5-1.9-0.5c-0.8,0-1.6,0.3-2.2,0.7c-0.1,0-0.1,0-0.2-0.1c-4.5-3.1-9-6.3-13.4-9.5c0.3-0.7,0.5-1.5,0.5-2.3
	c0-0.3,0-0.6-0.1-0.8c12.3-2.8,24.6-5.6,37.1-8.5C91.8,106.4,92.1,107.1,92.6,107.8z M56.9,156.6c3.9,2.3,7.8,4.4,11.6,6.6
	c6.3,3.6,12.6,7.2,18.9,10.8c-0.5,0.8-0.8,1.8-0.8,2.8c0,0.9,0.3,1.8,0.7,2.6c-2.9,2.7-5.8,5.5-8.8,8.2c-1-1-2.3-1.6-3.8-1.6
	c-0.9,0-1.8,0.3-2.5,0.7c-5.6-9.4-11.3-18.8-16.9-28.2C55.9,158,56.5,157.4,56.9,156.6z M79.1,188.3c2.9-2.7,5.8-5.4,8.7-8.1
	c1,1.2,2.5,2,4.2,2c1.2,0,2.3-0.4,3.2-1.1c3.7,4.7,7.3,9.4,10.9,14c4.6,5.9,9.2,11.9,13.9,17.8c-0.5,0.5-0.9,1-1.2,1.6
	c-6.2-3.3-12.5-6.6-18.7-9.9c-6.9-3.6-13.8-7.3-20.6-10.9c0.4-0.7,0.6-1.6,0.6-2.4C80.1,190.2,79.7,189.2,79.1,188.3z M127.4,211.9
	c1.4-3.8,2.7-7.6,4.1-11.4c1.1-3,2.2-6,3.3-9c0.6,0.2,1.2,0.3,1.8,0.3c2.9,0,5.2-2.2,5.4-5c5.3,0.4,10.6,0.8,16,1.2
	c1.2,0.1,2.4,0.2,3.6,0.2c0,0.7,0.2,1.3,0.5,1.8c-0.8,0.6-1.6,1.1-2.4,1.7c-10.1,7.2-20.3,14.4-30.1,21.8
	C128.9,212.9,128.2,212.4,127.4,211.9z M161.6,187.3c-0.3,0-0.6,0-0.9-0.1c0,0,0,0,0,0c-6.3-0.5-12.5-1-18.8-1.4
	c-0.1-1.1-0.6-2.2-1.3-3c4.8-4.1,9.5-8.1,14.3-12.2c1.2,1.3,2.8,2.1,4.7,2.1c0.2,0,0.4,0,0.5,0c1.3,4,2.6,7.9,3.7,11.9
	C162.7,185.2,161.9,186.1,161.6,187.3z M198,166.8c-2.1,1.3-3.8,0.1-5.6-0.6c-3.5-1.3-7-2.6-10.4-3.9c0.1-0.3,0.3-0.6,0.3-0.9
	c13.4-3.3,26.7-6.9,40-10.3c0.1,0.3,0.3,0.6,0.4,0.8c-1.1,0.7-2.1,1.5-3.2,2.2c-6,4-12,8.1-17.9,12.1c-0.8,0.6-1.6,1-2.7,0.6
	C198.6,166.7,198.2,166.6,198,166.8z M199.7,155.8c-5.8,1.5-11.6,3-17.4,4.2c-0.2-1.9-1.8-3.4-3.8-3.4c0,0,0,0,0,0
	c0.2-3.9,0.6-7.7,0.9-11.6c0.1-1.2,0.1-2.4,0.3-3.7c0-0.1,0-0.2,0.1-0.3c1.4-0.1,2.6-1,3.2-2.2c0.1,0,0.2,0,0.3,0
	c12.9,2.9,25.8,5.8,38.7,8.8c0,0.3-0.1,0.6-0.1,1c0,0.5,0.1,0.9,0.1,1.3C214.4,151.9,207,153.9,199.7,155.8z M231.4,113
	c-1.6,0.6-2.8,1.9-3.3,3.5c-5.2-0.9-10.4-1.7-15.5-2.6c-2.6-0.5-3.5-1.8-2.7-4.3c3.6-13.2,7.2-26.3,10.8-39.5
	c0.3-0.9,0.5-1.9,0.8-2.8c0.5,0.1,1.1,0.2,1.7,0.2c0.1,0,0.2,0,0.3,0C225.9,82.6,228.6,97.8,231.4,113z M216.6,61.2
	c-5.6,0.8-11.2,1.5-16.8,2.2c-4.5,0.6-9.1,1.2-13.6,1.8c-0.4,0.1-0.8,0.2-1.1-0.2c-0.3-0.4,0.1-0.7,0.4-1c4.6-4.6,9.2-9.1,13.8-13.7
	c1,0.9,2.3,1.5,3.7,1.5c1.7,0,3.1-0.8,4.1-2c3.5,2.6,6.9,5.3,10.4,7.9C217,58.7,216.6,59.9,216.6,61.2
	C216.6,61.2,216.6,61.2,216.6,61.2z M156.7,59.1c0.3,1.6,0.6,3.1,0.9,4.7c1.4,7.4,2.9,14.8,4.3,22.2c-1.1,0.4-2.1,1.2-2.7,2.2
	c-2.6-1.6-5.2-3.1-7.8-4.7c-3.2-2-6.5-3.9-9.7-5.9c-1.5-0.9-2-2.7-1-3.9c4.1-5.2,8.2-10.4,12.5-15.7
	C154.2,58.7,155.4,59.1,156.7,59.1z M72.4,50.5c0.3,0.3,0.6,0.5,1,0.7c-2.6,5.7-5.1,11.4-7.7,17.1c-1.2,2.6-2.3,5.2-3.5,7.8
	c-0.4-0.1-0.9-0.2-1.4-0.2c-3,0-5.4,2.4-5.4,5.4c0,0.6,0.1,1.1,0.3,1.6c-3.7,2.1-8,2.6-11.9,4.2c-0.5-0.9-1.1-1.6-1.9-2.2
	C52.1,73.5,62.3,62,72.4,50.5z M44.1,92.5c15.8,3.4,31.6,6.9,47.3,10.3c-0.1,0.4-0.1,0.8-0.1,1.2c0,0.2,0,0.5,0,0.7
	c-7.2,1.6-14,3.2-20.8,4.8c-5.4,1.2-10.9,2.5-16.4,3.7c-0.7-2.1-2.7-3.6-5.1-3.6c-0.6,0-1.1,0.1-1.6,0.3c-2.5-4.6-4.9-9.1-7.4-13.7
	C41.9,95.6,43.4,94.2,44.1,92.5z M54.5,159c2.7,4.4,5.3,8.9,8,13.3c3,4.9,5.9,9.9,8.9,14.8c-1.3,1-2.1,2.5-2.1,4.2
	c0,1.7,0.8,3.2,2,4.1c-2.5,3.2-4.9,6.4-7.4,9.6c-0.6-0.4-1.4-0.7-2.2-0.7c-0.1,0-0.2,0-0.3,0c-2.7-14.3-5.3-28.6-8-42.9
	c-0.1-0.7-0.2-1.3-0.4-2C53.6,159.4,54,159.2,54.5,159z M232.1,143.7c-0.7-0.6-1.5-1-2.5-1.2c0.9-6.4,1.7-12.8,2.7-19.1
	c0.2,0,0.5,0.1,0.8,0.1c3,0,5.4-2.4,5.4-5.4c0-0.4,0-0.8-0.1-1.2c7.2-1.9,14.5-3.7,21.8-5.5c0.1,0,0.2,0,0.9,0.2
	C251.3,122.4,241.7,133.1,232.1,143.7z M257.9,111c-6.6,1.6-13.1,3.3-19.7,4.9c-0.2-0.6-0.6-1.1-1-1.6
	c14.2-12.9,28.4-25.7,42.5-38.5c0.3,0.2,0.5,0.4,0.8,0.5c-3.2,6-6.4,12.1-9.6,18.1c-2.1,4-4.3,7.9-6.4,11.9c-0.4,0.8-0.9,1.6-2,1.6
	c-0.5,0-1.1,0.4-1.2,0.8C260.6,110.4,259.2,110.6,257.9,111z M298.4,28.5c0.2-0.6,0.2-1.6,1-1.7c0.9-0.1,0.9,0.9,1.2,1.5
	c1.5,3.1,3,6.2,4.5,9.4c-1.5,1-2.5,2.6-2.5,4.5c0,1.5,0.6,2.8,1.6,3.8c-5.4,6.8-11.1,13.4-16.7,20.1c-0.4-0.4-0.9-0.7-1.4-1
	c0.4-1.3,0.8-2.5,1.2-3.7C291.1,50.5,294.7,39.5,298.4,28.5z M282.4,12.8c0.8-0.3,1.3,0.4,1.9,0.8c3.9,2.9,7.8,5.9,11.7,8.8
	c1,0.8,2.2,4.1,1.8,5.2c-4.1,12.4-8.3,24.8-12.4,37.1c-0.5-0.2-1.1-0.3-1.7-0.3c-0.1-2.5-0.1-4.9-0.2-7.4
	c-0.4-8.6-0.6-17.2-0.9-25.9c-0.2-5.5-0.5-10.9-0.7-16.4C281.7,14.1,281.4,13.1,282.4,12.8z M264.9,20.9c4.3-2.6,8.6-5.2,12.9-7.8
	c2.1-1.3,2.9-0.8,2.9,1.7c0.4,10.6,0.8,21.2,1.2,31.9c0.2,5.9,0.5,11.9,0.7,17.8c-0.6,0.1-1.3,0.2-1.8,0.5c-2-4.3-3.9-8.6-5.9-12.8
	c-3.9-8.6-7.9-17.2-11.8-25.9C262.2,24.2,262.9,22.1,264.9,20.9z M261.3,25.5c0.1-0.1,0.3-0.1,0.4-0.2c6.1,13.3,12.2,26.7,18.3,40.1
	c-0.4,0.2-0.7,0.5-1,0.8c-1.4-1.3-2.8-2.6-4.1-3.9c-4.2-4.3-8.3-8.7-12.4-13c-0.8-0.8-1.6-1.5-1.2-2.8c0.1-0.3,0-0.9-0.3-1.1
	c-1.4-1.2-1.1-2.8-1-4.3C260.5,35.9,260.9,30.7,261.3,25.5z M259.8,25c0.7,0.3,0.4,1,0.4,1.6c-0.4,5.4-0.6,10.8-1.3,16.1
	c-0.3,1.8-1.5,3.9-3.5,4.7c-9.1,3.7-18.3,7.3-27,10.7c-0.2-0.4-0.5-0.7-0.7-1c2.7-2.9,5.6-6,8.6-9.1c7.3-7.4,14.8-14.7,22.2-22.1
	C258.9,25.5,259.2,24.8,259.8,25z M237,18.1c6.5,1.4,13.1,2.8,19.6,4.2c0.8,0.2,1.9,0.1,2.2,1.2c0.2,1-0.8,1.4-1.3,2
	c-10.3,10.2-20.5,20.4-30.8,30.6c-0.7-0.5-1.5-0.9-2.4-1.1c0.5-2.3,1-4.5,1.5-6.8c2.1-9,4.1-17.9,6.2-26.9
	C232.8,18.4,234.2,17.5,237,18.1z M213.5,19.5c4.8-0.6,9.6-1.2,14.4-1.8c3.2-0.4,4,0.4,3.3,3.4c-2.6,11.2-5.1,22.5-7.7,33.7
	c-0.2,0-0.3,0-0.5,0c-0.6,0-1.2,0.1-1.8,0.3c-0.7-2.1-1.4-4.2-2.1-6.3c-2.7-8.4-5.5-16.8-8.2-25.2C210,20.9,210.7,19.8,213.5,19.5z
	 M208.9,22.3c0.2,0,0.4-0.1,0.5-0.1c3.6,11,7.2,22.1,10.8,33.2c-0.8,0.4-1.5,0.9-2.1,1.6c-3.5-2.6-6.9-5.3-10.4-7.9
	c0.5-0.8,0.7-1.7,0.7-2.7c0-2.4-1.6-4.5-3.8-5.1C205.9,34.9,207.5,28.7,208.9,22.3z M192.4,29.6c4.6-2.6,9.3-5.3,13.9-7.9
	c0.4-0.3,0.9-0.6,1.4-0.1c0.4,0.4,0.3,0.8,0.2,1.3c-1.4,6.1-2.8,12.2-4.2,18.3c-0.2,0-0.4-0.1-0.5-0.1c-1.2,0-2.3,0.4-3.2,1.1
	c-2.6-2.8-5.3-5.7-7.9-8.5c-0.1-0.1-0.2-0.2-0.3-0.3c0.4-0.6,0.6-1.3,0.6-2.1c0-0.5-0.1-1-0.3-1.4C192.2,29.8,192.2,29.7,192.4,29.6
	z M162.5,30.9c0.5-2,2.4-2,3.3-3.1c4.4,0.7,8.4,1.3,12.4,2c2.2,0.4,4.4,0.7,6.6,1.1c0,0.1,0,0.3,0,0.4c0,0.6,0.2,1.2,0.4,1.7
	c-8,5.1-16,10.2-23.9,15.3c-0.9-0.8-2-1.4-3.2-1.7C159.5,41.3,161,36.1,162.5,30.9z M146.5,19.7c4.3,2,8.7,4,13,6
	c1.4,0.6,2.6,3.1,2.2,4.4c-1.5,5.4-3.1,10.9-4.7,16.3c-0.1,0-0.1,0-0.2,0c-0.8,0-1.6,0.2-2.4,0.5c-0.8-2.1-1.6-4.3-2.4-6.4
	c-2.4-6.4-4.8-12.8-7.1-19.2c0-0.1,0-0.1-0.1-0.2c0.6-0.4,1-0.9,1.3-1.6C146.3,19.6,146.4,19.7,146.5,19.7z M127.7,24.9
	c3.8-1.7,7.7-3.4,11.6-5.1c0.6,1.2,1.9,2,3.3,2c0.5,0,0.9-0.1,1.3-0.2c3.2,8.6,6.4,17.2,9.5,25.8c-0.5,0.3-1,0.7-1.4,1.2
	c-3.2-2.5-6.2-5-9.3-7.4c-5.2-4.2-10.3-8.3-15.5-12.5c-0.2-0.1-0.3-0.3-0.5-0.4c0.4-0.6,0.6-1.3,0.6-2c0-0.4-0.1-0.7-0.2-1.1
	C127.4,25.1,127.5,25,127.7,24.9z M110.6,14.2c3.3,3.2,6.7,6.5,10,9.7c0,0,0,0,0,0c-0.5,0.6-0.8,1.4-0.8,2.3c0,0.3,0.1,0.7,0.1,1
	c-12.6,5-25.1,10.1-38,15.2c-0.2-0.4-0.5-0.8-0.9-1.1c5.5-5.7,10.7-11.2,15.9-16.8c3.1-3.3,6.2-6.7,9.2-10.1
	C107.7,12.8,109,12.7,110.6,14.2z M87.3,4.1c5.5,2,11.1,3.9,16.6,5.9c2.4,0.9,2.8,2.4,1.1,4.3c-7.9,9.1-16.3,17.7-24.8,26.3
	c-0.6-0.5-1.3-0.8-2.1-1c0.3-1.7,0.5-3.5,0.8-5.2c1.5-9.4,3-18.8,4.6-28.2C83.9,4.2,85.3,3.4,87.3,4.1z M79.9,3.4
	c2-0.3,3,0.7,2.6,2.9c-1,6.6-2.1,13.2-3.2,19.8c-0.7,4.4-1.5,8.9-2.2,13.3c-0.2,0-0.4,0-0.6,0c-0.6,0-1.2,0.1-1.7,0.2
	c-4.2-8.9-8.3-17.7-12.4-26.6c2-0.8,3.5-2.7,3.5-5c0-0.8-0.2-1.5-0.5-2.2C70.3,5.1,75.1,4.2,79.9,3.4z M49.1,16.6
	c2.1-2.1,4.3-4.2,6.4-6.3c0.8,1.9,2.7,3.2,4.9,3.2c0.3,0,0.7,0,1-0.1C65.7,22.2,69.8,31.1,74,40c-0.5,0.2-0.9,0.5-1.3,0.8
	c-2.2-1.8-4.2-3.5-6.3-5.2c-5.7-4.8-11.3-9.6-17-14.4C47.8,19.8,47.7,18,49.1,16.6z M36.5,37.4c2.6-4.9,5.3-9.7,8-14.6
	c1.2-2.3,2.6-2.5,4.6-0.8c7.6,6.5,15.3,12.9,22.9,19.4c-0.7,0.7-1.2,1.6-1.5,2.6c-2.7-0.1-5.3-0.3-7.9-0.4c-7.7-0.5-15.4-1-23.1-1.4
	C34.7,41.9,34.3,41.4,36.5,37.4z M29.8,62.9c1-5.4,2.1-10.9,3.1-16.3c0.5-2.4,2.4-3.8,4.9-3.6c7.2,0.5,14.4,0.9,21.6,1.3
	c3.6,0.2,7.2,0.5,10.8,0.7c0,0.2,0,0.5,0,0.7c0,0.6,0.1,1.1,0.2,1.6c-3.5,1.6-7,3.3-10.6,4.9c-9.1,4.2-18.3,8.4-27.4,12.6
	c-0.8,0.3-1.6,1.2-2.5,0.5C29.1,64.6,29.7,63.7,29.8,62.9z M30.3,70.9c-0.7-2,0.2-4.2,1.9-5C45,60,57.9,54.1,70.7,48.2
	c0.3,0.6,0.6,1.2,1.1,1.7c-2.5,2.9-5.1,5.8-7.6,8.6c-7.7,8.7-15.3,17.3-23,25.9c-0.9-0.4-1.8-0.7-2.9-0.7c-1.2,0-2.3,0.3-3.3,0.9
	C33.4,80.1,31.9,75.5,30.3,70.9z M34.4,95.1c1.1,0.8,2.4,1.3,3.9,1.3c0.3,0,0.6,0,0.9-0.1c2.5,4.6,5,9.2,7.5,13.8
	c-1.4,0.7-2.4,2-2.8,3.6c-5.2-0.4-10.5-0.8-15.7-1.2c-0.1-1.2-0.8-2.3-1.8-2.9C29,104.8,31.7,99.9,34.4,95.1z M22,115.9
	c0.6,0.5,1.4,0.8,2.3,0.8c0.6,0,1.1-0.1,1.6-0.4c7.3,10.7,14.5,21.3,21.8,32c-0.5,0.4-1,0.9-1.4,1.4c-7.3-3.9-14.5-7.7-21.6-11.5
	c-3.4-1.8-6.9-3.7-10.3-5.5c0.5-0.8,0.7-1.7,0.7-2.7c0-1.5-0.6-2.9-1.6-3.9C16.4,122.8,19.2,119.3,22,115.9z M7.4,154.1
	c0.4-4.4,0.9-8.7,1.3-13c0.2-1.9,0.4-3.8,0.6-5.7c0.2,0,0.3,0,0.5,0c1.7,0,3.1-0.8,4.1-1.9c10.7,5.7,21.3,11.3,32,17
	c-0.4,0.8-0.6,1.7-0.7,2.6c-2.2,0.3-4.3,0.5-6.4,0.8c-8.9,1-17.9,2-26.8,3c-0.5,0.1-1,0.1-1.5,0.1C8.2,157.1,7.2,156.3,7.4,154.1z
	 M7.1,161.4c-0.1-1.2,1.7-3.2,2.9-3.3c7.2-0.8,14.5-1.6,21.7-2.4c4.5-0.5,9-1.1,13.5-1.6c0.1,0.7,0.3,1.3,0.5,1.9
	c-3.7,2.4-7.3,4.7-10.9,7c-7.9,5-15.7,10.1-23.6,15.1c-0.3,0.2-0.5,0.3-0.7,0.4c-0.6-0.7-1.5-1.1-2.4-1.2c0-0.2-0.1-0.5-0.1-0.8
	C7.7,171.6,7.4,166.5,7.1,161.4z M7.7,185C7.7,185,7.8,185,7.7,185c0.9,0,1.7-0.3,2.3-0.7c2.8,3.3,5.7,6.5,8.5,9.8
	c1,1.2,2.1,2.4,3.1,3.7c-0.7,0.6-1.2,1.4-1.3,2.4c-3.2,0.5-6.4,0.9-9.6,1.3c-0.2-2.5-2.1-4.5-4.6-4.9C6.7,192.7,7.2,188.8,7.7,185z
	 M44.9,192.7c-0.3,1.9-0.5,3.7-2.4,5c-0.5,0.4-1,0.8-1.7,0.8c-4.4,0.3-8.8,0.6-13.2,0.8c-0.3-0.7-0.7-1.3-1.3-1.8
	c0.1-0.1,0.1-0.2,0.2-0.4c2.7-4.8,5.5-9.6,8.2-14.4c4.6-8,9.1-15.9,13.7-23.9c0.4,0.2,0.9,0.4,1.4,0.6
	C48.2,170.8,46.5,181.8,44.9,192.7z M58.1,206.1c-3.1-1.7-6.2-3.5-9.2-5.3c-2.2-1.2-3.6-4-3.2-6.5c1.7-11.6,3.5-23.1,5.2-34.6
	c0.2,0,0.4,0,0.6,0c0.2,0,0.4,0,0.7,0c1.1,6.2,2.3,12.1,3.3,18.1c1.6,8.9,3.3,17.7,4.9,26.6c0,0.1,0,0.2,0.1,0.3
	c-0.9,0.3-1.6,0.9-2.1,1.7C58.3,206.2,58.2,206.2,58.1,206.1z M72.3,224.7c-2.7-4.2-5.4-8.5-8-12.8c-0.1-0.2-0.3-0.4-0.4-0.6
	c0.6-0.4,1.1-1,1.3-1.6c0.2,0,0.3,0.1,0.5,0.1c17.5,2.6,35,5.3,52.4,7.9c0,0.4,0.1,0.9,0.2,1.3c-2.8,0.6-5.5,1.1-8.1,1.7
	c-10.7,2.2-21.3,4.3-32,6.5C76.4,227.6,73.3,226.2,72.3,224.7z M83.8,246.3c-2.3-4.5-4.6-9.1-7-13.6c-1.4-2.6-0.9-4.2,2.2-4.8
	c13.2-2.5,26.4-5.3,39.6-8c0.3,0.6,0.6,1.2,1.1,1.7c-2.8,2.2-5.5,4.5-8.3,6.7c-7.7,6.3-15.4,12.5-23.1,18.8
	C86.4,248.8,84.9,248.5,83.8,246.3z M103.7,256c-4.9-1.7-9.8-3.3-14.6-5c-2-0.7-2.2-1.5-0.6-2.8c10.6-8.6,21.2-17.2,31.9-25.8
	c0.5,0.4,1,0.8,1.6,1c-2.4,5.6-4.6,10.9-6.8,16.3c-2,4.6-3.9,9.3-5.9,13.9c-0.1,0.2-0.2,0.4-0.3,0.6c-0.2-0.1-0.5-0.1-0.8-0.1
	c-1.5,0-2.8,0.9-3.4,2.2C104.4,256.2,104.1,256.1,103.7,256z M127.4,253.9c-5.2,1-10.3,1.9-15.5,2.8c-0.3-1-1-1.8-1.9-2.2
	c0-0.1,0.1-0.2,0.1-0.2c2.9-6.9,5.8-13.8,8.7-20.6c1.4-3.3,2.8-6.6,4.2-9.9c0.5,0.1,1,0.2,1.5,0.2c0.3,0,0.5,0,0.8,0
	c0.6,3.4,1.3,6.7,1.9,10.1c1,5.3,2,10.6,2.9,15.9C130.4,251.7,129.2,253.5,127.4,253.9z M157.4,246.4c-0.2,0.9-1,0.9-1.7,1
	c-7,1.7-13.9,3.3-20.9,4.9c-1.8,0.4-3.5-0.7-3.8-2.5c-1.6-8.8-3.2-17.5-4.8-26.3c1-0.3,1.9-0.8,2.6-1.4c3.7,3,7.4,6.1,11.1,9.1
	c5.5,4.5,11,9,16.4,13.5C156.7,245.2,157.6,245.5,157.4,246.4z M168.9,227c-2.6,5.4-5.3,10.8-8,16.1c-1,1.9-2.5,2.3-4.2,0.9
	c-9.2-7.5-18.3-15-27.4-22.6c0.5-0.6,0.9-1.3,1.1-2.1c2.9,0.3,5.7,0.6,8.6,1c9.4,1.1,18.8,2.2,28.2,3.4c0.2,0,0.5,0.1,0.7,0.1
	c0.1,1.1,0.6,2,1.3,2.6C169.1,226.7,169,226.8,168.9,227z M178.9,209.6c-2,3.4-3.9,6.8-6.1,10.1c-0.1,0.1-0.1,0.2-0.2,0.2
	c-0.3-0.1-0.7-0.2-1.1-0.2c-1.8,0-3.3,1.2-3.7,2.9c-0.3,0-0.6,0-0.8,0c-10.2-1-20.3-2.3-30.5-3.5c-2-0.2-4-0.5-6-0.7
	c0-0.3,0.1-0.6,0.1-1c0-0.1,0-0.3,0-0.4c6.4-1.7,12.8-3.3,19.2-4.9c8.8-2.2,17.6-4.4,26.6-5.9c0.4-0.1,0.9-0.2,1.4-0.3
	c0.3,1,1,1.8,2,2.3C179.6,208.7,179.2,209.2,178.9,209.6z M184.5,202.2C184.5,202.2,184.4,202.2,184.5,202.2
	c-0.7-0.8-1.8-1.3-2.9-1.3c-0.9,0-1.8,0.3-2.4,0.9c-3.5-3.7-7-7.4-10.5-11.1c-0.1-0.1-0.2-0.2-0.2-0.2c0.4-0.6,0.7-1.2,0.8-1.9
	c0.2,0,0.4,0,0.5,0c4.1,0,8.1,0,12.2,0c0,0,0,0,0,0c3.7,0,7.5,0,11.2,0c0,0.2-0.1,0.4-0.1,0.6c0,1.2,0.4,2.2,1,3.1
	C190.8,195.7,187.6,198.9,184.5,202.2z M203.9,186.2c-0.3,0.1-0.6,0.3-0.9,0.4c-0.4-0.6-0.9-1.2-1.5-1.6c0.3-0.3,0.6-0.6,0.8-0.9
	c7.5-10,15-20,22.6-30c0.5,0.3,0.9,0.5,1.5,0.6c-0.7,2.7-1.4,5.3-2,7.8c-1.3,5.1-2.6,10.1-3.8,15.2c0,0.1-0.1,0.2-0.1,0.3
	c-0.1,0-0.3,0-0.4,0c-2.1,0-3.8,1.7-3.8,3.8c0,0.2,0,0.3,0.1,0.5C212.4,184.5,207.8,184.5,203.9,186.2z M223.2,183.8
	c0.4-0.6,0.6-1.3,0.6-2c0-1.6-1-3-2.4-3.6c0-0.1,0-0.3,0.1-0.4c1.9-7.7,3.9-15.3,5.8-22.9c0.3,0,0.6,0.1,0.9,0.1
	c0.4,0,0.7,0,1.1-0.1c1.1,5,2.2,10.1,3.3,15.1c1.5,7.1,3.1,14.2,4.6,21.3c-1,0.2-1.9,0.7-2.7,1.3c-3.7-2.8-7.4-5.6-10.9-8.6
	C223.4,184,223.3,183.9,223.2,183.8z M252.2,172.8c-3.8,6.4-7.5,12.8-11.3,19.2c-0.8-0.5-1.8-0.8-2.8-0.8c-2.7-12.2-5.3-24.4-8-36.6
	c1.1-0.4,2-1,2.7-1.8c6,4.7,11.9,9.5,18,14.1c1.6,1.2,1.7,2.7,2.1,4.5C252.7,171.8,252.5,172.3,252.2,172.8z M263,147.9
	c-1.1,2.9-2.4,5.9-3.6,8.8c-1.2,3-2.5,6.1-3.8,9.1c-0.8,1.8-2.2,2.2-3.7,1c-6.2-4.9-12.4-9.8-18.6-14.7c0.6-1,1-2.2,1-3.4
	c0-0.1,0-0.1,0-0.2c9-1,18.1-2,27.3-3c0.2,0.8,0.7,1.6,1.4,2.1C263.1,147.6,263.1,147.7,263,147.9z M272.7,131.7
	c-1.8,2.8-3.6,5.5-5.4,8.3c-0.2,0.3-0.4,0.6-0.7,0.8c-0.4-0.1-0.8-0.2-1.2-0.2c-2,0-3.7,1.6-3.8,3.6c-3.6,1.5-7.6,0.8-11.3,1.5
	c-5.3,0.9-10.6,1.3-16,1.9c-0.1-0.4-0.2-0.8-0.3-1.2c13.7-6.8,27.2-13.5,40.6-20.2c0.2,0.5,0.5,0.9,0.9,1.2
	C274.5,128.9,273.6,130.3,272.7,131.7z M279.8,120.1c-0.2,0.3-0.5,0.6-0.7,0.9c-0.3-0.1-0.7-0.2-1-0.2c-2.1,0-3.8,1.7-3.8,3.8
	c0,0.2,0,0.3,0.1,0.5c-13.5,7-27.1,13.6-40.7,20.3c-0.2-0.4-0.5-0.8-0.8-1.1c0.9-1,1.7-1.9,2.6-2.9c8-8.9,16-17.8,24-26.7
	c1.1-1.2,2.1-2.7,4.1-2.5c0.4,0,1-0.3,1.1-0.7c0.7-1.8,2.3-1.9,3.8-2.2c5.3-1.1,10.6-2.3,15.9-3.4c0.2,1.4,1,2.5,2,3.4
	C284.2,113.1,282.2,116.8,279.8,120.1z M291.1,100c-0.5-0.1-1-0.2-1.5-0.2c-0.1,0-0.1,0-0.2,0c-0.5-2.7-1.1-5.5-1.6-8.2
	c-0.9-4.9-1.9-9.8-2.8-14.7c0.9-0.2,1.7-0.6,2.4-1.2c2.4,2.1,4.9,4.1,7.3,6.2c-0.8,0.9-1.3,2.1-1.3,3.4c0,1.7,0.8,3.2,2,4.2
	C294,93.1,292.5,96.6,291.1,100z M312.2,72.7c-3.5,2.7-7,5.4-10.5,8.2c-0.9-0.6-1.9-0.9-3-0.9c-1.3,0-2.5,0.5-3.5,1.3
	c-2.4-2.1-4.8-4.1-7.3-6.2c0.8-0.8,1.3-1.9,1.6-3c7.9-0.3,15.8-0.6,23.8-0.9C313.2,72.1,312.6,72.4,312.2,72.7z M320.4,55.9
	c-1.3,3.6-2.5,7.1-3.9,10.7c-0.8,2.2-2.9,3.5-4.7,3.6c-7.4,0.5-14.8,0.6-22.2,0.9c0-0.1,0-0.2,0-0.3c0-0.5-0.1-1.1-0.2-1.6
	c9.7-4.9,19.5-9.9,29.2-14.8c0.6-0.3,1.2-1,1.9-0.5C321.3,54.5,320.6,55.3,320.4,55.9z"/>
</svg>
